<svg xmlns="http://www.w3.org/2000/svg" xmlns:xlink="http://www.w3.org/1999/xlink" width="60" zoomAndPan="magnify" viewBox="0 0 45 44.999999" height="60" preserveAspectRatio="xMidYMid meet" version="1.2"><defs><clipPath id="a4e6f69e34"><path d="M 9 18 L 39 18 L 39 37.039062 L 9 37.039062 Z M 9 18 "/></clipPath><clipPath id="12fb5f8d56"><path d="M 0 7.789062 L 45 7.789062 L 45 37 L 0 37 Z M 0 7.789062 "/></clipPath><clipPath id="7c0a2b050b"><path d="M 20 21 L 24.980469 21 L 24.980469 24.4375 L 20 24.4375 Z M 20 21 "/></clipPath><clipPath id="56d262dfe3"><path d="M 19.730469 20.6875 L 24.980469 20.6875 L 24.980469 24.4375 L 19.730469 24.4375 Z M 19.730469 20.6875 "/></clipPath></defs><g id="08779b0417"><g clip-rule="nonzero" clip-path="url(#a4e6f69e34)"><path style=" stroke:none;fill-rule:nonzero;fill:#ffde59;fill-opacity:1;" d="M 38.054688 23.390625 C 38.054688 23.390625 36.082031 27.0625 32.160156 30.324219 C 33.003906 28.660156 33.480469 26.785156 33.480469 24.789062 C 33.480469 22.621094 32.914062 20.582031 31.921875 18.816406 C 29.089844 19.359375 26.148438 19.46875 23.296875 19.988281 C 20.472656 20.503906 17.621094 21.027344 15.0625 22.332031 C 12.980469 23.394531 10.996094 24.761719 9.09375 26.359375 C 9.867188 32.382812 15.007812 37.035156 21.234375 37.035156 C 21.617188 37.035156 22 37.019531 22.367188 36.980469 C 22.375 36.980469 34.125 36.433594 38.054688 23.390625 Z M 38.054688 23.390625 "/></g><path style=" stroke:none;fill-rule:nonzero;fill:#ff3131;fill-opacity:1;" d="M 23.296875 19.992188 C 20.472656 20.511719 17.621094 21.035156 15.0625 22.335938 C 15.046875 22.34375 15.035156 22.351562 15.019531 22.359375 C 11.886719 23.964844 10.949219 28.023438 13.046875 30.851562 C 14.917969 33.375 17.925781 35.007812 21.316406 34.980469 C 26.871094 34.9375 31.402344 30.390625 31.425781 24.828125 C 31.429688 22.734375 30.808594 20.78125 29.730469 19.164062 C 27.59375 19.445312 25.417969 19.605469 23.296875 19.992188 Z M 23.296875 19.992188 "/><path style=" stroke:none;fill-rule:nonzero;fill:#ffde59;fill-opacity:1;" d="M 27.035156 24.796875 C 27.035156 25.175781 27 25.554688 26.925781 25.925781 C 26.851562 26.300781 26.738281 26.664062 26.59375 27.015625 C 26.449219 27.367188 26.269531 27.703125 26.058594 28.019531 C 25.847656 28.335938 25.605469 28.628906 25.335938 28.898438 C 25.066406 29.167969 24.773438 29.40625 24.457031 29.617188 C 24.140625 29.832031 23.808594 30.007812 23.453125 30.15625 C 23.101562 30.300781 22.742188 30.410156 22.367188 30.484375 C 21.992188 30.558594 21.617188 30.597656 21.234375 30.597656 C 20.855469 30.597656 20.476562 30.558594 20.101562 30.484375 C 19.730469 30.410156 19.367188 30.300781 19.015625 30.15625 C 18.664062 30.007812 18.328125 29.832031 18.011719 29.617188 C 17.695312 29.40625 17.402344 29.167969 17.132812 28.898438 C 16.863281 28.628906 16.625 28.335938 16.410156 28.019531 C 16.199219 27.703125 16.023438 27.367188 15.875 27.015625 C 15.730469 26.664062 15.621094 26.300781 15.546875 25.925781 C 15.472656 25.554688 15.433594 25.175781 15.433594 24.796875 C 15.433594 24.414062 15.472656 24.039062 15.546875 23.664062 C 15.621094 23.289062 15.730469 22.925781 15.875 22.574219 C 16.023438 22.222656 16.199219 21.890625 16.410156 21.574219 C 16.625 21.257812 16.863281 20.964844 17.132812 20.695312 C 17.402344 20.425781 17.695312 20.183594 18.011719 19.972656 C 18.328125 19.761719 18.664062 19.582031 19.015625 19.4375 C 19.367188 19.289062 19.730469 19.179688 20.101562 19.105469 C 20.476562 19.03125 20.855469 18.996094 21.234375 18.996094 C 21.617188 18.996094 21.992188 19.03125 22.367188 19.105469 C 22.742188 19.179688 23.101562 19.289062 23.453125 19.4375 C 23.808594 19.582031 24.140625 19.761719 24.457031 19.972656 C 24.773438 20.183594 25.066406 20.425781 25.335938 20.695312 C 25.605469 20.964844 25.847656 21.257812 26.058594 21.574219 C 26.269531 21.890625 26.449219 22.222656 26.59375 22.574219 C 26.738281 22.925781 26.851562 23.289062 26.925781 23.664062 C 27 24.039062 27.035156 24.414062 27.035156 24.796875 Z M 27.035156 24.796875 "/><g clip-rule="nonzero" clip-path="url(#12fb5f8d56)"><path style=" stroke:none;fill-rule:nonzero;fill:#ffde59;fill-opacity:1;" d="M 44.75 7.796875 C 42.332031 11.003906 39.226562 12.277344 35.328125 13.25 C 30.601562 14.425781 24.144531 14.6875 19.539062 15.953125 C 14.5625 17.316406 12.011719 19.210938 8.375 23.738281 C 5.136719 27.753906 2.890625 31.011719 0 36.097656 C 4.640625 30.214844 9.476562 25.1875 15.070312 22.335938 C 17.625 21.035156 20.472656 20.511719 23.300781 19.992188 C 27.347656 19.25 31.59375 19.347656 35.414062 17.832031 C 39.90625 16.039062 43.636719 12.511719 44.75 7.796875 Z M 44.75 7.796875 "/><path style=" stroke:none;fill-rule:nonzero;fill:#ffde59;fill-opacity:1;" d="M 35.324219 13.25 C 30.597656 14.425781 24.140625 14.6875 19.535156 15.953125 C 18.734375 16.171875 17.996094 16.40625 17.308594 16.660156 C 21.800781 13.832031 27.914062 12.207031 27.914062 12.207031 C 21.289062 12.898438 15.210938 14.898438 12.375 16.835938 C 7.742188 19.996094 2.660156 29.605469 0 36.097656 C 4.640625 30.214844 9.476562 25.1875 15.070312 22.335938 C 17.625 21.035156 20.472656 20.511719 23.300781 19.992188 C 27.347656 19.25 31.59375 19.347656 35.414062 17.832031 C 39.90625 16.039062 43.636719 12.511719 44.75 7.796875 C 42.328125 11.003906 39.222656 12.277344 35.324219 13.25 Z M 35.324219 13.25 "/></g><path style=" stroke:none;fill-rule:nonzero;fill:#f8f9fa;fill-opacity:1;" d="M 28.605469 23.75 C 28.605469 23.96875 28.5625 24.179688 28.480469 24.386719 C 28.394531 24.589844 28.273438 24.769531 28.117188 24.925781 C 27.964844 25.082031 27.785156 25.199219 27.578125 25.285156 C 27.375 25.371094 27.164062 25.410156 26.941406 25.410156 C 26.722656 25.410156 26.511719 25.371094 26.308594 25.285156 C 26.101562 25.199219 25.921875 25.082031 25.765625 24.925781 C 25.613281 24.769531 25.492188 24.589844 25.40625 24.386719 C 25.324219 24.179688 25.28125 23.96875 25.28125 23.75 C 25.28125 23.527344 25.324219 23.316406 25.40625 23.113281 C 25.492188 22.910156 25.613281 22.730469 25.765625 22.574219 C 25.921875 22.417969 26.101562 22.296875 26.308594 22.210938 C 26.511719 22.128906 26.722656 22.085938 26.941406 22.085938 C 27.164062 22.085938 27.375 22.128906 27.578125 22.210938 C 27.785156 22.296875 27.964844 22.417969 28.117188 22.574219 C 28.273438 22.730469 28.394531 22.910156 28.480469 23.113281 C 28.5625 23.316406 28.605469 23.527344 28.605469 23.75 Z M 28.605469 23.75 "/><g clip-rule="nonzero" clip-path="url(#7c0a2b050b)"><path style=" stroke:none;fill-rule:nonzero;fill:#ffde59;fill-opacity:1;" d="M 24.195312 22.523438 C 24.195312 22.523438 23.960938 22.953125 23.503906 23.335938 C 23.601562 23.140625 23.65625 22.921875 23.65625 22.6875 C 23.65625 22.429688 23.589844 22.191406 23.476562 21.984375 C 23.144531 22.050781 22.796875 22.0625 22.464844 22.121094 C 22.132812 22.183594 21.796875 22.246094 21.496094 22.398438 C 21.253906 22.523438 21.019531 22.683594 20.796875 22.871094 C 20.886719 23.578125 21.492188 24.121094 22.222656 24.121094 C 22.265625 24.121094 22.3125 24.121094 22.355469 24.117188 C 22.355469 24.117188 23.734375 24.050781 24.195312 22.523438 Z M 24.195312 22.523438 "/></g><path style=" stroke:none;fill-rule:nonzero;fill:#ffde59;fill-opacity:1;" d="M 22.464844 22.125 C 22.132812 22.183594 21.796875 22.246094 21.496094 22.398438 C 21.496094 22.398438 21.492188 22.398438 21.492188 22.402344 C 21.125 22.589844 21.015625 23.066406 21.261719 23.398438 C 21.480469 23.695312 21.832031 23.882812 22.230469 23.882812 C 22.882812 23.875 23.414062 23.34375 23.417969 22.691406 C 23.417969 22.445312 23.34375 22.214844 23.21875 22.027344 C 22.96875 22.058594 22.710938 22.078125 22.464844 22.125 Z M 22.464844 22.125 "/><path style=" stroke:none;fill-rule:nonzero;fill:#ffde59;fill-opacity:1;" d="M 22.902344 22.6875 C 22.902344 22.875 22.835938 23.035156 22.703125 23.167969 C 22.570312 23.300781 22.410156 23.367188 22.222656 23.367188 C 22.035156 23.367188 21.871094 23.300781 21.738281 23.167969 C 21.605469 23.035156 21.539062 22.875 21.539062 22.6875 C 21.539062 22.5 21.605469 22.339844 21.738281 22.207031 C 21.871094 22.074219 22.035156 22.007812 22.222656 22.007812 C 22.410156 22.007812 22.570312 22.074219 22.703125 22.207031 C 22.835938 22.339844 22.902344 22.5 22.902344 22.6875 Z M 22.902344 22.6875 "/><g clip-rule="nonzero" clip-path="url(#56d262dfe3)"><path style=" stroke:none;fill-rule:nonzero;fill:#ffde59;fill-opacity:1;" d="M 24.980469 20.691406 C 24.695312 21.070312 24.332031 21.21875 23.875 21.332031 C 23.320312 21.46875 22.5625 21.5 22.023438 21.648438 C 21.4375 21.808594 21.140625 22.03125 20.710938 22.5625 C 20.332031 23.035156 20.070312 23.414062 19.730469 24.011719 C 20.273438 23.324219 20.839844 22.734375 21.496094 22.398438 C 21.796875 22.246094 22.132812 22.183594 22.464844 22.125 C 22.9375 22.035156 23.4375 22.046875 23.886719 21.871094 C 24.410156 21.660156 24.847656 21.246094 24.980469 20.691406 Z M 24.980469 20.691406 "/><path style=" stroke:none;fill-rule:nonzero;fill:#ffde59;fill-opacity:1;" d="M 23.875 21.332031 C 23.320312 21.46875 22.5625 21.5 22.023438 21.648438 C 21.925781 21.675781 21.839844 21.703125 21.761719 21.730469 C 22.289062 21.402344 23.003906 21.210938 23.003906 21.210938 C 22.226562 21.292969 21.515625 21.527344 21.183594 21.753906 C 20.636719 22.125 20.042969 23.25 19.730469 24.011719 C 20.273438 23.324219 20.839844 22.734375 21.496094 22.398438 C 21.796875 22.246094 22.132812 22.183594 22.464844 22.125 C 22.9375 22.035156 23.4375 22.046875 23.886719 21.871094 C 24.410156 21.660156 24.847656 21.246094 24.980469 20.691406 C 24.695312 21.070312 24.332031 21.21875 23.875 21.332031 Z M 23.875 21.332031 "/></g><path style=" stroke:none;fill-rule:nonzero;fill:#ffde59;fill-opacity:1;" d="M 23.085938 22.5625 C 23.085938 22.695312 23.019531 22.757812 22.890625 22.757812 C 22.761719 22.757812 22.695312 22.695312 22.695312 22.5625 C 22.695312 22.433594 22.761719 22.367188 22.890625 22.367188 C 23.019531 22.367188 23.085938 22.433594 23.085938 22.5625 Z M 23.085938 22.5625 "/></g></svg>